<?xml version="1.0"?><svg  xmlns="http://www.w3.org/2000/svg" fill="#ffffff"  viewBox="0 0 24 24" width="24px" height="24px">    <path d="M 4 4 C 2.976 4 2.1404375 4.772625 2.0234375 5.765625 L 12 12 L 21.976562 5.765625 C 21.859563 4.772625 21.024 4 20 4 L 4 4 z M 2 7.7519531 L 2 18 C 2 19.105 2.895 20 4 20 L 12 20 L 12 18 C 12 16.895 12.895 16 14 16 L 22 16 L 22 7.7519531 L 12 14 L 2 7.7519531 z M 14 18 L 14 20 L 16 20 L 16 18 L 14 18 z M 18 18 L 18 20 L 20 20 L 20 18 L 18 18 z M 22 18 L 22 20 L 24 20 L 24 18 L 22 18 z"/></svg>